<?xml version="1.0" encoding="utf-8"?>
<!-- Generator: Adobe Illustrator 26.0.3, SVG Export Plug-In . SVG Version: 6.00 Build 0)  -->
<svg version="1.0" id="Layer_1" xmlns="http://www.w3.org/2000/svg" xmlns:xlink="http://www.w3.org/1999/xlink" x="0px" y="0px"
	 viewBox="0 0 892.6 700.1" style="enable-background:new 0 0 892.6 700.1;" xml:space="preserve">
<style type="text/css">
	.st0{clip-path:url(#SVGID_00000159433999342565170910000000336528343095104918_);}
	.st1{fill:#0B85C8;}
	.st2{clip-path:url(#SVGID_00000057858928716057534610000009127097895021956499_);}
	.st3{clip-path:url(#SVGID_00000164501736689227132750000007099034825193712809_);}
	.st4{clip-path:url(#SVGID_00000124144402164906681870000018024073429209107613_);}
	.st5{clip-path:url(#SVGID_00000085231604364968775590000005375561613987095204_);}
	.st6{clip-path:url(#SVGID_00000181074297286261807740000013709504124883877007_);}
	.st7{clip-path:url(#SVGID_00000161607406650210653300000009591624298437113790_);}
</style>
<g>
	<g>
		<defs>
			<rect id="SVGID_1_" x="78.6" y="192.2" width="735.4" height="315.8"/>
		</defs>
		<clipPath id="SVGID_00000142881749088840063400000009457734914251681938_">
			<use xlink:href="#SVGID_1_"  style="overflow:visible;"/>
		</clipPath>
		<g style="clip-path:url(#SVGID_00000142881749088840063400000009457734914251681938_);">
			<path class="st1" d="M562.1,259.5c-14.3,3.6-25,15.6-32,34l2-20.5c0.5-5.4-3.7-10.1-9.1-10.8h-38.5c-5.1,0.7-9.1,4.9-9.1,9.9
				v138.1c0,5.1,4.1,9.2,9.1,9.2H524c5.1,0,9.2-4.1,9.2-9.2v-58c0-10.8,2.1-19,6.2-24.7s10.2-8.5,17.9-8.5c1.7,0,3.4,0.2,5,0.6
				c4.9,1.1,9.8-2,11-6.9c0.2-0.7,0.2-1.4,0.2-2.1v-41.3C573.4,263.5,567.8,258.1,562.1,259.5"/>
		</g>
	</g>
	<g>
		<defs>
			<rect id="SVGID_00000093890008458880553850000011921946468378883987_" x="78.6" y="192.2" width="735.4" height="315.8"/>
		</defs>
		<clipPath id="SVGID_00000028312223653448805090000011459680971972166819_">
			<use xlink:href="#SVGID_00000093890008458880553850000011921946468378883987_"  style="overflow:visible;"/>
		</clipPath>
		<g style="clip-path:url(#SVGID_00000028312223653448805090000011459680971972166819_);">
			<path class="st1" d="M348.6,259.6c-17.4,0-31.6,9.8-42.5,29.4c0.5-5.2,0.9-57.1,0.9-81.7c0-5-4-9.2-9.1-9.2c0,0,0,0-0.1,0h-42.8
				c-5.1,0-9.2,4.1-9.1,9.2v203c0,5.1,4.1,9.2,9.1,9.2h42.8c5.1,0,9.2-4.1,9.1-9.2v-77.2c0-12.7,8.7-16,13.7-16
				c6.9,0,13.8,5.3,13.8,16c0,0,0.1,53.3,0.1,77.2c0,5,4.1,9.1,9.1,9.1c0,0,0,0,0,0h38.2c5.1,0,9.2-4.1,9.1-9.2
				c0-24.9,0.1-59.2,0.1-96C391.2,268.9,368.2,259.7,348.6,259.6"/>
		</g>
	</g>
	<g>
		<defs>
			<rect id="SVGID_00000153703956159124704700000013021123772741148825_" x="78.6" y="192.2" width="735.4" height="315.8"/>
		</defs>
		<clipPath id="SVGID_00000031927248187837875380000003953875625029912508_">
			<use xlink:href="#SVGID_00000153703956159124704700000013021123772741148825_"  style="overflow:visible;"/>
		</clipPath>
		<g style="clip-path:url(#SVGID_00000031927248187837875380000003953875625029912508_);">
			<path class="st1" d="M451.1,262.2h-36.2c-5.8,0-10.5,4.7-10.5,10.5v136.2c0,5.8,4.7,10.5,10.5,10.5h0h36.2
				c5.8,0,10.5-4.7,10.5-10.5V272.7C461.6,266.9,456.9,262.2,451.1,262.2"/>
		</g>
	</g>
	<g>
		<defs>
			<rect id="SVGID_00000113320794022530675290000011749101892824003715_" x="78.6" y="192.2" width="735.4" height="315.8"/>
		</defs>
		<clipPath id="SVGID_00000152957164321600380050000014067771123614305177_">
			<use xlink:href="#SVGID_00000113320794022530675290000011749101892824003715_"  style="overflow:visible;"/>
		</clipPath>
		<g style="clip-path:url(#SVGID_00000152957164321600380050000014067771123614305177_);">
			<path class="st1" d="M462.6,221.9c-0.1-16.3-13.4-29.5-29.7-29.4c-16.3,0.1-29.5,13.4-29.4,29.7c0.1,16.3,13.3,29.4,29.6,29.4
				C449.4,251.6,462.6,238.3,462.6,221.9C462.6,221.9,462.6,221.9,462.6,221.9"/>
		</g>
	</g>
	<g>
		<defs>
			<rect id="SVGID_00000138533113307462183360000016232262954743410077_" x="78.6" y="192.2" width="735.4" height="315.8"/>
		</defs>
		<clipPath id="SVGID_00000015353541114283297240000017780624210980583856_">
			<use xlink:href="#SVGID_00000138533113307462183360000016232262954743410077_"  style="overflow:visible;"/>
		</clipPath>
		<g style="clip-path:url(#SVGID_00000015353541114283297240000017780624210980583856_);">
			<path class="st1" d="M814,393.1c-0.1-16.3-13.4-29.5-29.7-29.4c-16.3,0.1-29.5,13.4-29.4,29.7c0.1,16.3,13.3,29.4,29.6,29.4
				C800.8,422.8,814,409.5,814,393.1C814,393.2,814,393.2,814,393.1"/>
		</g>
	</g>
	<g>
		<defs>
			<rect id="SVGID_00000161622810710750000460000011093390801642451115_" x="78.6" y="192.2" width="735.4" height="315.8"/>
		</defs>
		<clipPath id="SVGID_00000182486832372676897810000004594589608200377487_">
			<use xlink:href="#SVGID_00000161622810710750000460000011093390801642451115_"  style="overflow:visible;"/>
		</clipPath>
		<g style="clip-path:url(#SVGID_00000182486832372676897810000004594589608200377487_);">
			<path class="st1" d="M674.3,374.4c-16.4,0.1-29.8-13.1-29.9-29.5s13.1-29.8,29.5-29.9c16.4-0.1,29.8,13.1,29.9,29.5
				c0,0,0,0.1,0,0.1c0.1,16.4-13.1,29.7-29.4,29.8C674.4,374.4,674.4,374.4,674.3,374.4 M682.8,259.4c-23.5,0-35.6,13.6-42.5,29.1
				l-0.4,1.3c-0.6,1.1-1.2,2.3-1.6,3.5l0.5-4.6l0.1-0.5l1.6-15.4c0.5-5.4-3.7-10.1-9.1-10.9h-38.6c-5.1,0.7-9.2,4.9-9.2,9.9v226.7
				c0,5.1,4.1,9.2,9.2,9.2h38.9c5.1,0,9.2-4.1,9.2-9.2V405c2.3,10,27.9,17.7,42.2,17.7c44.9,0,72-36.5,72-81.6
				S727.6,259.5,682.8,259.4"/>
		</g>
	</g>
	<g>
		<defs>
			<rect id="SVGID_00000079481762996768176220000014539927709814238136_" x="78.6" y="192.2" width="735.4" height="315.8"/>
		</defs>
		<clipPath id="SVGID_00000145050602606614691910000007951531905811727523_">
			<use xlink:href="#SVGID_00000079481762996768176220000014539927709814238136_"  style="overflow:visible;"/>
		</clipPath>
		<g style="clip-path:url(#SVGID_00000145050602606614691910000007951531905811727523_);">
			<path class="st1" d="M227.4,357.4h-39.1c-2.2,0-4.4,0.9-6,2.4c-2.9,3.5-6.7,6.4-10.9,8.2c-0.1,0.1-0.2,0.1-0.2,0.1
				c-0.3,0.2-0.7,0.3-1,0.4c-0.2,0.1-0.5,0.1-0.8,0.2c-0.2,0.1-0.4,0.2-0.6,0.2c-0.3,0.1-0.6,0.2-0.9,0.3c-0.1,0-0.3,0.1-0.4,0.2
				l-1,0.2c-0.1,0-0.2,0.1-0.3,0.1c-1.1,0.2-2.2,0.4-3.3,0.5c-0.2,0-0.5,0.1-0.7,0.1h-3.9c-0.2,0-0.4,0-0.6-0.1
				c-0.2,0-0.6-0.1-0.8-0.1s-0.4-0.1-0.5-0.1c-0.3,0-0.6-0.1-0.9-0.2c-0.2,0-0.4-0.1-0.6-0.1s-0.5-0.1-0.8-0.2
				c-0.2-0.1-0.4-0.1-0.6-0.1s-0.5-0.1-0.7-0.2s-0.5-0.2-0.8-0.2c-0.2,0-0.3-0.1-0.5-0.1c-1.2-0.4-2.4-0.8-3.4-1.3
				c-14.7-6.5-21.3-23.7-14.8-38.3c2.9-6.6,8.2-11.9,14.8-14.8c1.1-0.5,2.3-0.9,3.4-1.3c0.1-0.1,0.3-0.1,0.5-0.1s0.5-0.2,0.8-0.2
				c0.2-0.1,0.5-0.1,0.7-0.2c0.2-0.1,0.4-0.1,0.6-0.1c0.2-0.1,0.6-0.1,0.8-0.2c0.2-0.1,0.4-0.1,0.6-0.1s0.5-0.1,0.9-0.2
				c0.2,0,0.4-0.1,0.5-0.1s0.6-0.1,0.8-0.1c0.2,0,0.4,0,0.6-0.1h3.9c0.2,0,0.5,0.1,0.7,0.1c1.1,0.1,2.3,0.3,3.3,0.5
				c0.1,0,0.2,0.1,0.3,0.1c0.4,0.1,0.7,0.1,1,0.2c0.1,0,0.3,0,0.4,0.1c0.3,0.1,0.6,0.2,0.9,0.3c0.2,0.1,0.4,0.1,0.6,0.2
				c0.2,0.1,0.5,0.2,0.8,0.2s0.7,0.2,1,0.4c0.1,0.1,0.2,0.1,0.2,0.2c4.2,1.8,8,4.6,10.9,8.2c1.6,1.5,3.8,2.4,6,2.4h39.1
				c5.1,0,9.1-4.1,9.1-9.2c0-1.1-0.2-2.2-0.6-3.2c-11.8-31.8-42.1-53-76.1-53c-44.4,0-80.4,35.8-81.2,80.3c0,0.5,0.1,0.9,0.1,1.3
				s-0.1,0.9-0.1,1.3c0.7,44.5,36.8,80.3,81.2,80.3c33.9,0,64.3-21.2,76.1-53c1.8-4.7-0.6-10-5.4-11.8
				C229.6,357.6,228.5,357.4,227.4,357.4"/>
		</g>
	</g>
</g>
</svg>
